<svg width="20" height="20" viewBox="0 0 20 20" fill="none" xmlns="http://www.w3.org/2000/svg">
<path d="M15.8333 15.833H4.16667V6.66634H15.8333M15.8333 2.49967H15V0.833008H13.3333V2.49967H6.66667V0.833008H5V2.49967H4.16667C3.72464 2.49967 3.30072 2.67527 2.98816 2.98783C2.67559 3.30039 2.5 3.72431 2.5 4.16634V15.833C2.5 16.275 2.67559 16.699 2.98816 17.0115C3.30072 17.3241 3.72464 17.4997 4.16667 17.4997H15.8333C16.2754 17.4997 16.6993 17.3241 17.0118 17.0115C17.3244 16.699 17.5 16.275 17.5 15.833V4.16634C17.5 3.72431 17.3244 3.30039 17.0118 2.98783C16.6993 2.67527 16.2754 2.49967 15.8333 2.49967ZM13.775 9.21634L12.8917 8.33301L8.825 12.3997L7.05833 10.633L6.175 11.5163L8.825 14.1663L13.775 9.21634Z" fill="#9594A0"/>
</svg>
