<svg width="20" height="20" viewBox="0 0 20 20" fill="none" xmlns="http://www.w3.org/2000/svg">
<path d="M12.9149 11.2501C12.9149 12.9168 10.8316 14.1668 10.8316 15.4168H9.1649C9.1649 14.1668 7.08157 12.9168 7.08157 11.2501C7.08157 9.64178 8.3899 8.33345 9.99824 8.33345C11.6066 8.33345 12.9149 9.64178 12.9149 11.2501ZM10.8316 16.2501H9.1649V16.6668C9.1649 17.1251 9.5399 17.5001 9.99824 17.5001C10.4566 17.5001 10.8316 17.1251 10.8316 16.6668V16.2501ZM15.8316 10.8334C15.8316 11.9918 15.4899 13.0751 14.8982 13.9834C14.7977 14.1434 14.7544 14.3328 14.7756 14.5205C14.7968 14.7083 14.8812 14.8833 15.0149 15.0168C15.3816 15.3834 16.0149 15.3334 16.2982 14.8918C17.0839 13.6843 17.5009 12.2741 17.4982 10.8334C17.4982 8.86678 16.7399 7.07511 15.4982 5.73345C15.1732 5.38345 14.6232 5.37511 14.2899 5.70845C13.9732 6.02511 13.9732 6.53345 14.2732 6.86678C15.2765 7.94379 15.8335 9.36154 15.8316 10.8334ZM13.0399 3.87511L10.7149 1.55011C10.6569 1.49057 10.5825 1.44968 10.5012 1.43267C10.4199 1.41566 10.3353 1.4233 10.2584 1.45463C10.1814 1.48595 10.1155 1.53952 10.0692 1.60849C10.0229 1.67746 9.99815 1.75869 9.99824 1.84178V3.33345C8.65039 3.33376 7.32753 3.6973 6.16881 4.38582C5.01008 5.07433 4.05831 6.06238 3.41361 7.24605C2.76891 8.42971 2.45509 9.76524 2.50518 11.1122C2.55527 12.4591 2.9674 13.7676 3.69824 14.9001C3.98157 15.3418 4.6149 15.3918 4.98157 15.0251C5.25657 14.7501 5.30657 14.3251 5.09824 14.0001C3.9399 12.2084 3.73157 9.75011 5.20657 7.33345C6.20657 5.70845 8.0899 4.84178 9.99824 5.00011V6.49178C9.99824 6.86678 10.4482 7.05012 10.7066 6.78345L13.0316 4.45845C13.1982 4.30011 13.1982 4.03345 13.0399 3.87511Z" fill="#808188"/>
</svg>
