<svg width="20" height="20" viewBox="0 0 20 20" fill="none" xmlns="http://www.w3.org/2000/svg">
<path d="M8.878 2.30281C9.50028 1.69334 10.496 1.69333 11.1182 2.30281L12.13 3.29402C12.4249 3.58267 12.8199 3.74666 13.2325 3.75105L14.6485 3.7657C15.5195 3.77474 16.2235 4.4787 16.2325 5.34968L16.2471 6.76472C16.2514 7.17761 16.4153 7.57321 16.7042 7.86824L17.6954 8.87996C18.3048 9.50223 18.3048 10.498 17.6954 11.1202L16.7042 12.1319C16.4155 12.4268 16.2515 12.8218 16.2471 13.2344L16.2325 14.6505C16.2235 15.5215 15.5195 16.2254 14.6485 16.2344L13.2325 16.2491C12.8198 16.2535 12.4249 16.4174 12.13 16.7061L11.1182 17.6973C10.496 18.3068 9.50028 18.3067 8.878 17.6973L7.86629 16.7061C7.57126 16.4173 7.17565 16.2534 6.76277 16.2491L5.34773 16.2344C4.47674 16.2254 3.77279 15.5215 3.76375 14.6505L3.7491 13.2344C3.74471 12.8218 3.58072 12.4268 3.29207 12.1319L2.30086 11.1202C1.69137 10.4979 1.69139 9.50223 2.30086 8.87996L3.29207 7.86824C3.58087 7.57322 3.74481 7.17756 3.7491 6.76472L3.76375 5.34968C3.77279 4.4787 4.47674 3.77474 5.34773 3.7657L6.76277 3.75105C7.17561 3.74677 7.57127 3.58283 7.86629 3.29402L8.878 2.30281ZM9.99714 7.52156C8.62847 7.52176 7.51863 8.63135 7.51863 10.0001C7.51868 11.3688 8.6285 12.4784 9.99714 12.4786C11.366 12.4786 12.4756 11.3689 12.4757 10.0001C12.4757 8.63122 11.366 7.52156 9.99714 7.52156Z" fill="#9594A0"/>
</svg>
