<svg width="20" height="20" viewBox="0 0 20 20" fill="none" xmlns="http://www.w3.org/2000/svg">
<path d="M8.33464 13.3337C9.72352 13.3337 10.9041 12.8475 11.8763 11.8753C12.8485 10.9031 13.3346 9.72255 13.3346 8.33366C13.3346 6.94477 12.8485 5.76421 11.8763 4.79199C10.9041 3.81977 9.72352 3.33366 8.33464 3.33366C6.94575 3.33366 5.76519 3.81977 4.79297 4.79199C3.82075 5.76421 3.33464 6.94477 3.33464 8.33366C3.33464 9.72255 3.82075 10.9031 4.79297 11.8753C5.76519 12.8475 6.94575 13.3337 8.33464 13.3337ZM7.5013 10.8337V5.00033H9.16797V10.8337H7.5013ZM4.58464 10.8337V6.66699H6.2513V10.8337H4.58464ZM10.418 10.8337V7.50033H12.0846V10.8337H10.418ZM17.168 18.3337L12.4388 13.6045C11.8694 14.0489 11.2374 14.3928 10.543 14.6362C9.84852 14.8795 9.11241 15.0009 8.33464 15.0003C6.47352 15.0003 4.89714 14.3545 3.60547 13.0628C2.3138 11.7712 1.66797 10.1948 1.66797 8.33366C1.66797 6.47255 2.3138 4.89616 3.60547 3.60449C4.89714 2.31283 6.47352 1.66699 8.33464 1.66699C10.1957 1.66699 11.7721 2.31283 13.0638 3.60449C14.3555 4.89616 15.0013 6.47255 15.0013 8.33366C15.0013 9.11144 14.8799 9.84755 14.6371 10.542C14.3944 11.2364 14.0505 11.8684 13.6055 12.4378L18.3346 17.167L17.168 18.3337Z" fill="#9594A0"/>
</svg>
