<svg width="20" height="20" viewBox="0 0 20 20" fill="none" xmlns="http://www.w3.org/2000/svg">
<path d="M16.9729 10.676C17.2489 10.676 17.475 10.8997 17.4553 11.175C17.4019 11.9135 17.2306 12.6403 16.9465 13.3264C16.5984 14.1667 16.0877 14.9303 15.4445 15.5734C14.8014 16.2166 14.0378 16.7273 13.1975 17.0754C12.5113 17.3596 11.7847 17.5317 11.0461 17.5852C10.7707 17.6051 10.5461 17.3789 10.5461 17.1027V11.176C10.5461 10.8999 10.7701 10.6761 11.0461 10.676H16.9729ZM7.5754 2.13301C8.9191 1.86573 10.3126 2.00326 11.5783 2.52755C12.8438 3.0518 13.9256 3.93943 14.6867 5.07833C15.355 6.07854 15.7498 7.23379 15.8361 8.42794C15.8559 8.70322 15.6298 8.92696 15.3537 8.92696H9.42696C9.15101 8.92709 8.92709 9.15101 8.92696 9.42696V15.3537C8.92696 15.6298 8.70322 15.8559 8.42794 15.8361C7.23379 15.7498 6.07854 15.355 5.07833 14.6867C3.93943 13.9256 3.0518 12.8438 2.52755 11.5783C2.00326 10.3126 1.86573 8.9191 2.13301 7.5754C2.40034 6.23182 3.06082 4.99817 4.0295 4.0295C4.99817 3.06082 6.23182 2.40034 7.5754 2.13301Z" fill="#9594A0"/>
</svg>
