<svg width="20" height="20" viewBox="0 0 20 20" fill="none" xmlns="http://www.w3.org/2000/svg">
<path d="M8.5 12.75C8.77614 12.75 9 12.9739 9 13.25V17.25C9 17.5261 8.77614 17.75 8.5 17.75H4.5C3.39543 17.75 2.5 16.8546 2.5 15.75V13.25C2.5 12.9739 2.72386 12.75 3 12.75H8.5ZM17 9.25C17.2761 9.25 17.5 9.47386 17.5 9.75V15.75C17.5 16.8546 16.6046 17.75 15.5 17.75H11.5C11.2239 17.75 11 17.5261 11 17.25V9.75C11 9.47386 11.2239 9.25 11.5 9.25H17ZM8.5 2.25C8.77614 2.25 9 2.47386 9 2.75V10.25C9 10.5261 8.77614 10.75 8.5 10.75H3C2.72386 10.75 2.5 10.5261 2.5 10.25V4.25C2.5 3.14543 3.39543 2.25 4.5 2.25H8.5ZM15.5 2.25C16.6046 2.25 17.5 3.14543 17.5 4.25V6.75C17.5 7.02614 17.2761 7.25 17 7.25H11.5C11.2239 7.25 11 7.02614 11 6.75V2.75C11 2.47386 11.2239 2.25 11.5 2.25H15.5Z" fill="#B751FB"/>
</svg>
