<svg width="20" height="20" viewBox="0 0 20 20" fill="none" xmlns="http://www.w3.org/2000/svg">
<path d="M3.12402 5.16501C9.85101 6.14751 11.1778 3.31116 17.3418 4.7695C17.7796 4.87312 18.0818 5.27078 18.082 5.72067V13.9257C18.0818 14.5859 17.4533 15.0626 16.8066 14.9297C10.9826 13.7315 9.59684 16.5024 2.73438 15.3838C2.26251 15.3068 1.92208 14.8931 1.92188 14.415V6.17379C1.92189 5.54444 2.50128 5.07404 3.12402 5.16501ZM4.45703 12.0644C3.89941 12.0646 3.4474 12.5166 3.44727 13.0742C3.44727 13.6319 3.89933 14.0848 4.45703 14.0849C5.01484 14.0849 5.46777 13.632 5.46777 13.0742C5.46764 12.5165 5.01476 12.0644 4.45703 12.0644ZM10.0029 7.72458C8.74684 7.72464 7.72858 8.7429 7.72852 9.99899C7.72852 11.2551 8.74679 12.2733 10.0029 12.2734C11.2591 12.2734 12.2773 11.2552 12.2773 9.99899C12.2773 8.74285 11.2591 7.72458 10.0029 7.72458ZM15.5469 5.91501C14.9892 5.91514 14.5371 6.36704 14.5371 6.92477C14.5372 7.48239 14.9893 7.9344 15.5469 7.93454C16.1046 7.93454 16.5575 7.48247 16.5576 6.92477C16.5576 6.36696 16.1047 5.91501 15.5469 5.91501Z" fill="#9594A0"/>
</svg>
