<svg width="32" height="32" viewBox="0 0 32 32" fill="none" xmlns="http://www.w3.org/2000/svg">
<rect width="32" height="32" rx="6.4" fill="#F0F2F4"/>
<path fill-rule="evenodd" clip-rule="evenodd" d="M8 8.83333C8 8.61232 8.0878 8.40036 8.24408 8.24408C8.40036 8.0878 8.61232 8 8.83333 8H22.1667C22.3877 8 22.5996 8.0878 22.7559 8.24408C22.9122 8.40036 23 8.61232 23 8.83333V20.5C23 21.163 22.7366 21.7989 22.2678 22.2678C21.7989 22.7366 21.163 23 20.5 23H10.5C9.83696 23 9.20107 22.7366 8.73223 22.2678C8.26339 21.7989 8 21.163 8 20.5V8.83333ZM15.5 16.3325C15.279 16.3325 15.067 16.2447 14.9107 16.0884C14.7545 15.9321 14.6667 15.7202 14.6667 15.4992V12.1658C14.6667 11.9448 14.7545 11.7329 14.9107 11.5766C15.067 11.4203 15.279 11.3325 15.5 11.3325C15.721 11.3325 15.933 11.4203 16.0893 11.5766C16.2455 11.7329 16.3333 11.9448 16.3333 12.1658V15.4992C16.3333 15.7202 16.2455 15.9321 16.0893 16.0884C15.933 16.2447 15.721 16.3325 15.5 16.3325ZM14.25 18.8325C14.25 18.501 14.3817 18.183 14.6161 17.9486C14.8505 17.7142 15.1685 17.5825 15.5 17.5825H15.5083C15.8399 17.5825 16.1578 17.7142 16.3922 17.9486C16.6266 18.183 16.7583 18.501 16.7583 18.8325V18.8408C16.7583 19.1724 16.6266 19.4903 16.3922 19.7247C16.1578 19.9591 15.8399 20.0908 15.5083 20.0908H15.5C15.1685 20.0908 14.8505 19.9591 14.6161 19.7247C14.3817 19.4903 14.25 19.1724 14.25 18.8408V18.8325Z" fill="#B751FB"/>
<path fill-rule="evenodd" clip-rule="evenodd" d="M8.5 9.33431C8.5 9.1133 8.5878 8.90133 8.74408 8.74505C8.90036 8.58877 9.11232 8.50098 9.33333 8.50098H22.6667C22.8877 8.50098 23.0996 8.58877 23.2559 8.74505C23.4122 8.90133 23.5 9.1133 23.5 9.33431V21.001C23.5 21.664 23.2366 22.2999 22.7678 22.7687C22.2989 23.2376 21.663 23.501 21 23.501H11C10.337 23.501 9.70107 23.2376 9.23223 22.7687C8.76339 22.2999 8.5 21.664 8.5 21.001V9.33431ZM16 16.8335C15.779 16.8335 15.567 16.7457 15.4107 16.5894C15.2545 16.4331 15.1667 16.2212 15.1667 16.0001V12.6668C15.1667 12.4458 15.2545 12.2338 15.4107 12.0776C15.567 11.9213 15.779 11.8335 16 11.8335C16.221 11.8335 16.433 11.9213 16.5893 12.0776C16.7455 12.2338 16.8333 12.4458 16.8333 12.6668V16.0001C16.8333 16.2212 16.7455 16.4331 16.5893 16.5894C16.433 16.7457 16.221 16.8335 16 16.8335ZM14.75 19.3335C14.75 19.002 14.8817 18.684 15.1161 18.4496C15.3505 18.2152 15.6685 18.0835 16 18.0835H16.0083C16.3399 18.0835 16.6578 18.2152 16.8922 18.4496C17.1266 18.684 17.2583 19.002 17.2583 19.3335V19.3418C17.2583 19.6733 17.1266 19.9913 16.8922 20.2257C16.6578 20.4601 16.3399 20.5918 16.0083 20.5918H16C15.6685 20.5918 15.3505 20.4601 15.1161 20.2257C14.8817 19.9913 14.75 19.6733 14.75 19.3418V19.3335Z" fill="black"/>
</svg>
