<svg width="147" height="34" viewBox="0 0 147 34" fill="none" xmlns="http://www.w3.org/2000/svg">
<path d="M13.8553 6.06669C14.3786 6.48865 14.4825 6.76743 14.6181 7.42193C14.3954 8.61836 13.2743 9.42889 12.4301 10.2534C12.3463 10.3353 12.2626 10.4171 12.1763 10.5015C11.8283 10.8412 11.4802 11.1808 11.1289 11.5172C9.67749 12.9098 8.51016 14.2502 8.43415 16.3583C8.45737 17.7567 9.0023 18.9691 9.96297 19.9706C11.0893 20.9817 12.3195 21.4829 13.8451 21.4322C15.6262 21.2193 16.9302 20.1425 18.1779 18.9363C18.2654 18.8537 18.3528 18.7712 18.4429 18.6861C18.8283 18.3001 19.0498 18.0593 19.1283 17.5104C19.0986 17.1581 19.0986 17.1581 18.9001 16.9901C18.5341 16.8837 18.5341 16.8837 18.0864 16.9901C17.6735 17.3153 17.3302 17.7016 16.9778 18.0906C16.0782 19.0792 15.2806 19.8014 13.9265 20.0171C12.5228 20.0155 11.6844 19.8557 10.6788 18.8663C9.99232 18.1013 9.73916 17.3852 9.72586 16.3685C9.72125 16.2094 9.71663 16.0503 9.71188 15.8864C9.99955 13.8666 11.8932 12.3615 13.3671 11.1208C15.2337 9.75332 17.4139 9.3032 19.6934 9.59234C21.9027 10.0307 23.7711 11.0942 25.084 12.9651C26.4756 15.0953 26.7738 17.5099 26.2728 19.9973C26.1252 20.4335 25.9423 20.8185 25.735 21.229C25.681 21.3415 25.6269 21.454 25.5713 21.5698C24.8242 22.9605 23.7134 24.0335 22.61 25.1417C22.2654 25.4896 21.9268 25.8428 21.5881 26.1965C21.3677 26.4197 21.1471 26.6427 20.926 26.8652C20.8263 26.9706 20.7266 27.0761 20.6238 27.1847C20.0769 27.7214 19.7123 27.9793 18.9317 28C18.3897 27.9749 18.2741 27.9336 17.8321 27.5772C17.5268 26.9521 17.4699 26.6466 17.5982 25.957C18.4589 24.7221 19.6868 23.7031 20.7768 22.6744C22.0908 21.4307 23.3004 20.0054 23.4897 18.1301C23.5249 16.54 23.0922 15.2176 21.9921 14.0554C20.9557 13.0707 19.766 12.5958 18.3407 12.5168C16.864 12.5769 15.5889 13.2511 14.5062 14.2185C14.3604 14.3475 14.2146 14.4766 14.0644 14.6095C13.1804 15.3514 13.1804 15.3514 12.8331 16.3889C12.8482 16.5335 12.8633 16.6781 12.8789 16.827C13.2285 17.0061 13.2285 17.0061 13.6925 16.9901C14.1095 16.6831 14.4367 16.2951 14.7808 15.91C15.8935 14.7375 16.8328 13.8862 18.5136 13.8007C19.6072 13.8564 20.331 14.2327 21.1479 14.9419C21.9373 15.8684 22.2279 16.6742 22.1958 17.8812C22.0486 19.3657 21.0461 20.3461 20.0291 21.3411C19.8995 21.474 19.77 21.6069 19.6365 21.7439C18.0842 23.2866 16.1924 24.3715 13.9703 24.4031C13.835 24.4014 13.6997 24.3997 13.5603 24.398C13.4178 24.3967 13.2753 24.3953 13.1284 24.3939C10.9151 24.3364 8.99476 23.4635 7.45774 21.8506C5.69466 19.7288 5.34203 17.3707 5.55576 14.7076C6.07353 11.8282 8.53271 9.73953 10.509 7.76838C10.6549 7.62158 10.8008 7.47478 10.9511 7.32353C11.0903 7.1843 11.2295 7.04507 11.3729 6.90161C11.4983 6.77624 11.6236 6.65086 11.7527 6.52169C12.3715 5.94352 13.0425 5.94086 13.8553 6.06669Z" fill="black"/>
<path d="M47.517 27.2685C46.3172 27.2685 45.2434 26.9602 44.2955 26.3438C43.3475 25.7273 42.5985 24.8324 42.0483 23.6591C41.4981 22.4858 41.223 21.0606 41.223 19.3835C41.223 17.6866 41.5014 16.2547 42.0582 15.0881C42.6217 13.9148 43.3807 13.0298 44.3352 12.4332C45.2898 11.83 46.3537 11.5284 47.527 11.5284C48.4219 11.5284 49.1577 11.6809 49.7344 11.9858C50.3111 12.2841 50.7685 12.6454 51.1065 13.0696C51.4446 13.4872 51.7064 13.8816 51.892 14.2528H52.0412V6.63636H55.6506V27H52.1108V24.5938H51.892C51.7064 24.965 51.438 25.3594 51.0866 25.777C50.7353 26.188 50.2713 26.5393 49.6946 26.831C49.1179 27.1226 48.392 27.2685 47.517 27.2685ZM48.5213 24.3153C49.2836 24.3153 49.9332 24.1098 50.4702 23.6989C51.0071 23.2812 51.4148 22.7012 51.6932 21.9588C51.9716 21.2164 52.1108 20.3513 52.1108 19.3636C52.1108 18.3759 51.9716 17.5175 51.6932 16.7884C51.4214 16.0592 51.017 15.4924 50.4801 15.0881C49.9498 14.6837 49.2969 14.4815 48.5213 14.4815C47.7192 14.4815 47.0497 14.6903 46.5128 15.108C45.9759 15.5256 45.5715 16.1023 45.2997 16.8381C45.0279 17.5739 44.892 18.4157 44.892 19.3636C44.892 20.3182 45.0279 21.17 45.2997 21.919C45.5781 22.6615 45.9858 23.2481 46.5227 23.679C47.0663 24.1032 47.7325 24.3153 48.5213 24.3153ZM63.321 27.3082C62.3532 27.3082 61.4815 27.1359 60.706 26.7912C59.937 26.4399 59.3272 25.9228 58.8764 25.2401C58.4323 24.5573 58.2102 23.7154 58.2102 22.7145C58.2102 21.8527 58.3693 21.1402 58.6875 20.5767C59.0057 20.0133 59.4399 19.5625 59.9901 19.2244C60.5403 18.8864 61.1601 18.6312 61.8494 18.4588C62.5455 18.2798 63.2647 18.1506 64.0071 18.071C64.902 17.9782 65.6279 17.8954 66.1847 17.8224C66.7415 17.7429 67.1458 17.6236 67.3977 17.4645C67.6563 17.2988 67.7855 17.0436 67.7855 16.6989V16.6392C67.7855 15.8902 67.5635 15.3101 67.1193 14.8991C66.6752 14.4882 66.0355 14.2827 65.2003 14.2827C64.3187 14.2827 63.6193 14.4749 63.1023 14.8594C62.5919 15.2438 62.2472 15.6979 62.0682 16.2216L58.7074 15.7443C58.9726 14.8163 59.4101 14.0407 60.0199 13.4176C60.6297 12.7879 61.3755 12.3172 62.2571 12.0057C63.1387 11.6875 64.1132 11.5284 65.1804 11.5284C65.9162 11.5284 66.6487 11.6146 67.3779 11.7869C68.107 11.9593 68.7732 12.2443 69.3764 12.642C69.9797 13.0331 70.4636 13.5668 70.8281 14.2429C71.1994 14.919 71.385 15.7642 71.385 16.7784V27H67.9247V24.902H67.8054C67.5867 25.3262 67.2784 25.724 66.8807 26.0952C66.4896 26.4598 65.9958 26.7547 65.3992 26.9801C64.8092 27.1989 64.1165 27.3082 63.321 27.3082ZM64.2557 24.6634C64.9782 24.6634 65.6047 24.5208 66.135 24.2358C66.6653 23.9441 67.0729 23.5597 67.358 23.0824C67.6496 22.6051 67.7955 22.0848 67.7955 21.5213V19.7216C67.6828 19.8144 67.4905 19.9006 67.2188 19.9801C66.9536 20.0597 66.6553 20.1293 66.3239 20.1889C65.9924 20.2486 65.6643 20.3016 65.3395 20.348C65.0147 20.3944 64.733 20.4342 64.4943 20.4673C63.9574 20.5402 63.4768 20.6596 63.0526 20.8253C62.6283 20.991 62.2936 21.223 62.0483 21.5213C61.803 21.813 61.6804 22.1908 61.6804 22.6548C61.6804 23.3177 61.9224 23.8182 62.4063 24.1562C62.8902 24.4943 63.5066 24.6634 64.2557 24.6634ZM85.6701 12.2344C85.5773 11.366 85.1862 10.6899 84.4968 10.206C83.8141 9.72206 82.9258 9.48011 81.8321 9.48011C81.0631 9.48011 80.4036 9.59612 79.8534 9.82812C79.3032 10.0601 78.8823 10.375 78.5906 10.7727C78.2989 11.1705 78.1498 11.6245 78.1431 12.1349C78.1431 12.5592 78.2393 12.9271 78.4315 13.2386C78.6304 13.5502 78.8988 13.8153 79.2369 14.0341C79.575 14.2462 79.9495 14.4252 80.3605 14.571C80.7715 14.7169 81.1858 14.8395 81.6034 14.9389L83.5125 15.4162C84.2814 15.5952 85.0205 15.8371 85.7298 16.142C86.4457 16.447 87.0854 16.8314 87.6488 17.2955C88.2189 17.7595 88.6697 18.3196 89.0011 18.9759C89.3325 19.6321 89.4983 20.401 89.4983 21.2827C89.4983 22.4759 89.1933 23.5265 88.5835 24.4347C87.9736 25.3362 87.092 26.0421 85.9386 26.5526C84.7918 27.0563 83.4031 27.3082 81.7724 27.3082C80.1881 27.3082 78.8126 27.063 77.646 26.5724C76.4859 26.0819 75.5778 25.366 74.9215 24.4247C74.2719 23.4834 73.9206 22.3366 73.8676 20.9844H77.4968C77.5499 21.6937 77.7686 22.2836 78.1531 22.7543C78.5376 23.2249 79.038 23.5762 79.6545 23.8082C80.2776 24.0402 80.9736 24.1562 81.7426 24.1562C82.5447 24.1562 83.2473 24.0369 83.8505 23.7983C84.4604 23.553 84.9376 23.215 85.2823 22.7841C85.627 22.3466 85.8027 21.8362 85.8093 21.2528C85.8027 20.7225 85.6469 20.285 85.342 19.9403C85.0371 19.589 84.6095 19.2973 84.0593 19.0653C83.5158 18.8267 82.8794 18.6146 82.1502 18.429L79.8335 17.8324C78.1564 17.4015 76.8306 16.7486 75.8562 15.8736C74.8884 14.992 74.4045 13.822 74.4045 12.3636C74.4045 11.1638 74.7293 10.1132 75.3789 9.21165C76.0352 8.31013 76.9268 7.6108 78.0537 7.11364C79.1805 6.60985 80.4566 6.35795 81.8818 6.35795C83.3269 6.35795 84.593 6.60985 85.6801 7.11364C86.7738 7.6108 87.6323 8.3035 88.2554 9.19176C88.8785 10.0734 89.2 11.0876 89.2198 12.2344H85.6701ZM96.4628 27.3082C95.495 27.3082 94.6233 27.1359 93.8477 26.7912C93.0788 26.4399 92.4689 25.9228 92.0182 25.2401C91.574 24.5573 91.352 23.7154 91.352 22.7145C91.352 21.8527 91.5111 21.1402 91.8292 20.5767C92.1474 20.0133 92.5816 19.5625 93.1318 19.2244C93.682 18.8864 94.3018 18.6312 94.9912 18.4588C95.6872 18.2798 96.4064 18.1506 97.1488 18.071C98.0437 17.9782 98.7696 17.8954 99.3264 17.8224C99.8832 17.7429 100.288 17.6236 100.539 17.4645C100.798 17.2988 100.927 17.0436 100.927 16.6989V16.6392C100.927 15.8902 100.705 15.3101 100.261 14.8991C99.8169 14.4882 99.1772 14.2827 98.342 14.2827C97.4604 14.2827 96.7611 14.4749 96.244 14.8594C95.7336 15.2438 95.3889 15.6979 95.2099 16.2216L91.8491 15.7443C92.1143 14.8163 92.5518 14.0407 93.1616 13.4176C93.7715 12.7879 94.5172 12.3172 95.3988 12.0057C96.2805 11.6875 97.2549 11.5284 98.3221 11.5284C99.0579 11.5284 99.7904 11.6146 100.52 11.7869C101.249 11.9593 101.915 12.2443 102.518 12.642C103.121 13.0331 103.605 13.5668 103.97 14.2429C104.341 14.919 104.527 15.7642 104.527 16.7784V27H101.066V24.902H100.947C100.728 25.3262 100.42 25.724 100.022 26.0952C99.6313 26.4598 99.1375 26.7547 98.5409 26.9801C97.9509 27.1989 97.2582 27.3082 96.4628 27.3082ZM97.3974 24.6634C98.12 24.6634 98.7464 24.5208 99.2767 24.2358C99.807 23.9441 100.215 23.5597 100.5 23.0824C100.791 22.6051 100.937 22.0848 100.937 21.5213V19.7216C100.824 19.8144 100.632 19.9006 100.36 19.9801C100.095 20.0597 99.797 20.1293 99.4656 20.1889C99.1342 20.2486 98.806 20.3016 98.4812 20.348C98.1564 20.3944 97.8747 20.4342 97.6361 20.4673C97.0991 20.5402 96.6185 20.6596 96.1943 20.8253C95.77 20.991 95.4353 21.223 95.19 21.5213C94.9448 21.813 94.8221 22.1908 94.8221 22.6548C94.8221 23.3177 95.0641 23.8182 95.548 24.1562C96.0319 24.4943 96.6484 24.6634 97.3974 24.6634ZM111.185 6.63636V27H107.586V6.63636H111.185ZM120.989 27.2983C119.497 27.2983 118.205 26.9702 117.111 26.3139C116.017 25.6577 115.169 24.7396 114.565 23.5597C113.969 22.3797 113.671 21.0009 113.671 19.4233C113.671 17.8456 113.969 16.4635 114.565 15.277C115.169 14.0904 116.017 13.169 117.111 12.5128C118.205 11.8565 119.497 11.5284 120.989 11.5284C122.48 11.5284 123.773 11.8565 124.867 12.5128C125.96 13.169 126.805 14.0904 127.402 15.277C128.005 16.4635 128.307 17.8456 128.307 19.4233C128.307 21.0009 128.005 22.3797 127.402 23.5597C126.805 24.7396 125.96 25.6577 124.867 26.3139C123.773 26.9702 122.48 27.2983 120.989 27.2983ZM121.009 24.4148C121.817 24.4148 122.493 24.1927 123.037 23.7486C123.581 23.2978 123.985 22.6946 124.25 21.9389C124.522 21.1832 124.658 20.3414 124.658 19.4134C124.658 18.4787 124.522 17.6335 124.25 16.8778C123.985 16.1155 123.581 15.509 123.037 15.0582C122.493 14.6075 121.817 14.3821 121.009 14.3821C120.18 14.3821 119.491 14.6075 118.94 15.0582C118.397 15.509 117.989 16.1155 117.717 16.8778C117.452 17.6335 117.32 18.4787 117.32 19.4134C117.32 20.3414 117.452 21.1832 117.717 21.9389C117.989 22.6946 118.397 23.2978 118.94 23.7486C119.491 24.1927 120.18 24.4148 121.009 24.4148ZM134.401 18.0511V27H130.802V11.7273H134.242V14.3224H134.421C134.773 13.4673 135.333 12.7879 136.102 12.2841C136.877 11.7803 137.835 11.5284 138.975 11.5284C140.029 11.5284 140.947 11.7538 141.729 12.2045C142.518 12.6553 143.128 13.3082 143.559 14.1634C143.997 15.0185 144.212 16.0559 144.205 17.2756V27H140.606V17.8324C140.606 16.8116 140.341 16.0128 139.81 15.4361C139.287 14.8594 138.561 14.571 137.633 14.571C137.003 14.571 136.443 14.7102 135.952 14.9886C135.469 15.2604 135.087 15.6548 134.809 16.1719C134.537 16.6889 134.401 17.3153 134.401 18.0511Z" fill="#0A0A0A"/>
</svg>
