<svg width="16" height="16" viewBox="0 0 16 16" fill="none" xmlns="http://www.w3.org/2000/svg">
<path d="M4.47401 4.19526C4.21366 3.93491 3.79155 3.93491 3.5312 4.19526C3.27085 4.45561 3.27085 4.87772 3.5312 5.13807L6.39313 8L3.5312 10.8619C3.27085 11.1223 3.27085 11.5444 3.5312 11.8047C3.79155 12.0651 4.21366 12.0651 4.47401 11.8047L7.80734 8.47141C7.93237 8.34638 8.0026 8.17681 8.0026 8C8.0026 7.82319 7.93237 7.65362 7.80734 7.5286L4.47401 4.19526Z" fill="black"/>
<path d="M9.14068 4.19526C8.88033 3.93491 8.45822 3.93491 8.19787 4.19526C7.93752 4.45561 7.93752 4.87772 8.19787 5.13807L11.0598 8L8.19787 10.8619C7.93752 11.1223 7.93752 11.5444 8.19787 11.8047C8.45822 12.0651 8.88033 12.0651 9.14068 11.8047L12.474 8.47141C12.599 8.34638 12.6693 8.17681 12.6693 8C12.6693 7.82319 12.599 7.65362 12.474 7.5286L9.14068 4.19526Z" fill="black"/>
</svg>
