<svg width="16" height="16" viewBox="0 0 16 16" fill="none" xmlns="http://www.w3.org/2000/svg">
<path d="M11.526 11.8047C11.7863 12.0651 12.2085 12.0651 12.4688 11.8047C12.7291 11.5444 12.7291 11.1223 12.4688 10.8619L9.60687 8L12.4688 5.13807C12.7291 4.87772 12.7291 4.45561 12.4688 4.19526C12.2085 3.93491 11.7863 3.93491 11.526 4.19526L8.19266 7.52859C8.06763 7.65362 7.9974 7.82319 7.9974 8C7.9974 8.17681 8.06763 8.34638 8.19266 8.4714L11.526 11.8047Z" fill="black"/>
<path d="M6.85932 11.8047C7.11967 12.0651 7.54178 12.0651 7.80213 11.8047C8.06248 11.5444 8.06248 11.1223 7.80213 10.8619L4.9402 8L7.80213 5.13807C8.06248 4.87772 8.06248 4.45561 7.80213 4.19526C7.54178 3.93491 7.11967 3.93491 6.85932 4.19526L3.52599 7.52859C3.40097 7.65362 3.33073 7.82319 3.33073 8C3.33073 8.17681 3.40097 8.34638 3.52599 8.4714L6.85932 11.8047Z" fill="black"/>
</svg>
